<?xml version="1.0" encoding="iso-8859-1"?>
<!-- Generator: Adobe Illustrator 21.0.0, SVG Export Plug-In . SVG Version: 6.00 Build 0)  -->
<svg xmlns="http://www.w3.org/2000/svg" xmlns:xlink="http://www.w3.org/1999/xlink" version="1.1" id="Capa_1" x="0px" y="0px" viewBox="0 0 512 512" style="enable-background:new 0 0 512 512;" xml:space="preserve" width="512" height="512">
<g>
	<path style="fill:#EEEEEE;" d="M318.744,488.355c-1.964-3.174-6.555-3.174-8.519-0.001c-4.333,7-11.56,16.146-19.739,16.146   c-13.26,0-24-10.75-24-24c0-11.49,8.036-20.845,18.347-23.358c5.697-1.388,9.653-6.57,9.653-12.434V372h40v72.737   c0,5.839,3.915,11.038,9.589,12.419c9.022,2.195,16.532,9.598,18.095,19.395c2.393,14.995-9.139,27.949-23.684,27.949   C330.3,504.5,323.075,495.355,318.744,488.355z"/>
	<g>
		<path style="fill:#E0E0E0;" d="M362.17,476.551c-1.564-9.797-9.073-17.2-18.095-19.395c-5.673-1.38-9.589-6.58-9.589-12.419V372    H312.25v72.737c0,14.372,8,21.013,19.92,31.814c6.855,6.212,1.959,15.222-6.198,21.32c3.643,3.756,7.927,6.628,12.514,6.628    C353.03,504.5,364.563,491.546,362.17,476.551z"/>
	</g>
	<path style="fill:#F57C7C;" d="M391.886,327.012c-10.223,44.343-45.594,78.94-90.042,78.94c-44.742,0-90.067-33.694-90.067-79.095   c0-85.272-97.778-92.53-97.778-189.057C114,48.887,177.576,7.5,256,7.5s142,72.078,142,160.989   C398,201.594,397.497,302.674,391.886,327.012z"/>
	<path style="fill:#EF6161;" d="M256,7.5c-5.756,0-11.429,0.229-17.006,0.678C311.327,15.619,368,84.546,368,168.489   c0,33.105-0.503,134.184-6.114,158.522c-9.071,39.349-37.953,71.001-75.4,77.636c5.081,0.854,10.223,1.303,15.358,1.303   c44.447,0,79.819-34.596,90.042-78.94C397.497,302.674,398,201.594,398,168.489C398,79.578,334.424,7.5,256,7.5z"/>
	<path style="fill:#FFCFC9;" d="M397.97,181.817c-0.1,28.79-0.589,77.56-2.576,111.75c-26.64,5.52-53.279,11.04-79.929,16.56   c-40.552,8.364-48.186-14.46-31.352-38.62C309.511,235.072,359.185,203.879,397.97,181.817z"/>
	<path style="fill:#FAB2B2;" d="M367.888,199.704c-0.184,29.507-0.668,68.079-1.881,99.952c9.795-2.03,19.593-4.059,29.387-6.089   c1.987-34.19,2.476-82.96,2.576-111.75C388.428,187.245,378.225,193.228,367.888,199.704z"/>
	<path style="fill:#FFCFC9;" d="M390.77,117.65c-25.31,2.69-59.37,9.51-106.17,46.01c-30.66,23.91-56.68,53.12-83.29,81.47   c-4.99,5.32-10.1,10.68-15.82,15.15c-14.13-16.58-31.48-30.97-45.55-48.76c14.26-23.34,39.56-38.35,64.33-50.67   c26.74-13.31,55.21-25.63,74.74-48.22c16.75-19.36,6.17-33.2-7.52-35.1c-17.08-2.37-32.14,13.04-44.85,22.21   c-29.18,21.04-47.52,6.47-49.68-5.62c-2.78-15.56,12.38-24.71,25.42-30.88c36.28-17.11,74.08-30.9,112.86-41.1   C350.72,40.63,378.32,75.22,390.77,117.65z"/>
	<g>
		<path style="fill:#FAB2B2;" d="M315.24,22.14c-6.758,1.778-13.484,3.671-20.18,5.665c32.074,20.277,56.494,54.238,67.116,94.921    c10.615-2.799,20.1-4.174,28.594-5.076C378.32,75.22,350.72,40.63,315.24,22.14z"/>
	</g>
	<path d="M334.49,419.917c4.142,0,7.5-3.358,7.5-7.5v-8.366c27.686-13.577,49.255-40.873,57.204-75.354   c5.691-24.686,6.306-120.262,6.306-160.208c0-46.112-16.201-89.15-45.617-121.188c-2.801-3.052-7.546-3.252-10.597-0.452   c-3.051,2.801-3.253,7.546-0.452,10.597c14.204,15.469,25.034,33.782,32.089,53.865c-26.16,3.752-58.449,13.298-100.935,46.434   c-40.557,31.627-78.327,77.661-93.775,92.037c-5.104-5.593-10.443-10.944-15.744-16.255c-7.395-7.411-14.67-14.701-21.258-22.484   c15.327-21.913,43.566-36.231,67.35-47.888c24.468-11.992,49.769-24.392,68.12-45.618c19.632-22.691,8.902-44.512-12.161-47.436   c-17.079-2.373-31.575,9.017-43.224,18.166c-9.872,7.754-24.407,18.465-36.943,13.392c-4.787-1.938-7.473-5.845-8.011-8.857   c-1.47-8.228,4.884-15.041,21.236-22.777c35.004-16.508,71.579-29.922,108.726-39.876c4.003,2.199,7.917,4.63,11.726,7.289   c3.398,2.372,8.073,1.539,10.442-1.858c2.371-3.397,1.538-8.072-1.858-10.442C311.049,8.692,283.864,0,256,0   c-42.551,0-78.935,11.602-105.216,33.551C121.813,57.746,106.5,93.793,106.5,137.798c0,52.861,28.344,81.265,53.352,106.325   c22.847,22.895,44.426,44.52,44.426,82.733c0,10.519,2.186,20.793,6.498,30.538c1.24,2.801,3.985,4.467,6.863,4.467   c1.014,0,2.044-0.207,3.031-0.644c3.788-1.676,5.5-6.105,3.824-9.893c-3.461-7.821-5.215-16.053-5.215-24.469   c0-28.133-9.955-48.422-23.351-65.628c16.521-15.208,53.64-60.737,93.285-91.654c40.98-31.961,71.52-40.456,96.078-43.721   c3.435,13.662,5.209,27.975,5.209,42.636c0,2.966-0.003,5.956-0.01,8.964c-36.354,20.864-86.542,52.486-112.531,89.766   c-10.538,15.125-12.655,29.757-5.809,40.143c3.915,5.938,11.802,12.045,27.691,12.045c4.91,0,10.587-0.584,17.145-1.936   l70.275-14.56c-0.743,10.073-1.631,17.855-2.683,22.415c-9.926,43.055-43.947,73.125-82.733,73.125   c-21.808,0-44.38-8.879-60.382-23.75c-3.035-2.82-7.78-2.646-10.6,0.388c-2.82,3.034-2.646,7.78,0.388,10.6   c15.083,14.017,35.161,23.479,55.74,26.619v32.403c0,2.463-1.619,4.578-3.941,5.145c-14.166,3.462-24.059,16.064-24.059,30.646   c0,17.369,14.131,31.5,31.5,31.5c8.438,0,16.498-5.532,23.989-16.448C321.986,506.47,330.052,512,338.49,512   c9.23,0,17.964-4.032,23.962-11.062c5.997-7.028,8.593-16.347,7.124-25.567c-1.986-12.475-11.304-22.483-23.733-25.498   c-2.233-0.543-3.854-2.702-3.854-5.133c0-4.142-3.358-7.5-7.5-7.5s-7.5,3.358-7.5,7.5c0,9.409,6.294,17.513,15.312,19.708   c6.438,1.561,11.445,6.898,12.461,13.281c0.789,4.951-0.533,9.735-3.721,13.471c-3.144,3.686-7.719,5.799-12.552,5.799   c-2.692,0-7.62-3.308-13.366-12.576c-2.292-3.718-6.264-5.942-10.623-5.95c-0.008,0-0.015,0-0.022,0   c-4.354,0-8.327,2.211-10.638,5.931C298.091,493.701,293.055,497,290.49,497c-9.098,0-16.5-7.402-16.5-16.5   c0-7.648,5.19-14.258,12.617-16.073c9.057-2.209,15.383-10.317,15.383-19.717v-31.259c8.587-0.014,16.971-1.252,25-3.584v2.55   C326.99,416.559,330.348,419.917,334.49,419.917z M160.398,45.064C183.949,25.396,217.007,15,256,15   c12.416,0,24.691,1.948,36.495,5.739c-31.84,9.512-63.15,21.492-93.323,35.722c-9.22,4.362-33.709,15.95-29.596,38.979   c1.566,8.764,8.137,16.475,17.149,20.123c18.511,7.495,36.877-3.748,51.836-15.499c10.39-8.16,21.138-16.596,31.896-15.104   c9.943,1.38,14.152,9.736,2.877,22.766c-16.353,18.916-40.258,30.631-63.376,41.961c-25.299,12.4-52.182,26.088-70.204,49.001   c-10.883-16.009-18.256-34.912-18.256-60.889C121.5,97.82,134.587,66.62,160.398,45.064z M313.95,302.782   c-14.801,3.052-25.747,1.678-29.276-3.675c-3.145-4.771-0.95-13.922,5.591-23.311c22.579-32.389,65.956-60.923,100.145-80.958   c-0.228,33.284-0.907,67.095-2.202,92.559L313.95,302.782z"/>
</g>















</svg>
