<?xml version="1.0" encoding="UTF-8" standalone="no"?>
<!-- Created with Inkscape (http://www.inkscape.org/) -->

<svg
   xmlns:dc="http://purl.org/dc/elements/1.1/"
   xmlns:cc="http://creativecommons.org/ns#"
   xmlns:rdf="http://www.w3.org/1999/02/22-rdf-syntax-ns#"
   xmlns:svg="http://www.w3.org/2000/svg"
   xmlns="http://www.w3.org/2000/svg"
   xmlns:sodipodi="http://sodipodi.sourceforge.net/DTD/sodipodi-0.dtd"
   xmlns:inkscape="http://www.inkscape.org/namespaces/inkscape"
   version="1.1"
   id="svg4518"
   width="256"
   height="256"
   viewBox="0 0 256 256"
   sodipodi:docname="fuel.svg"
   inkscape:version="0.92.4 (5da689c313, 2019-01-14)">
  <metadata
     id="metadata4524">
    <rdf:RDF>
      <cc:Work
         rdf:about="">
        <dc:format>image/svg+xml</dc:format>
        <dc:type
           rdf:resource="http://purl.org/dc/dcmitype/StillImage" />
        <dc:title></dc:title>
      </cc:Work>
    </rdf:RDF>
  </metadata>
  <defs
     id="defs4522" />
  <sodipodi:namedview
     pagecolor="#ffffff"
     bordercolor="#666666"
     borderopacity="1"
     objecttolerance="10"
     gridtolerance="10"
     guidetolerance="10"
     inkscape:pageopacity="0"
     inkscape:pageshadow="2"
     inkscape:window-width="1280"
     inkscape:window-height="971"
     id="namedview4520"
     showgrid="false"
     inkscape:zoom="3.015625"
     inkscape:cx="128"
     inkscape:cy="128"
     inkscape:window-x="-8"
     inkscape:window-y="-8"
     inkscape:window-maximized="1"
     inkscape:current-layer="svg4518" />
  <path
     style="fill:#000000"
     d="m 0.66839373,249.78194 c 0,-3.05231 0.68318497,-6.87079 1.51818897,-8.48551 1.602764,-3.09941 2.635048,-3.49775 11.5672503,-4.46364 l 5.58544,-0.60398 0.649139,-106.4267 C 20.622935,25.771683 20.683088,23.278549 22.660018,19.072812 25.918532,12.140621 30.305358,7.6356532 37.012619,4.3336792 l 6.273029,-3.088202 51.441373,0.293064 c 58.875209,0.335416 55.249259,-0.219549 64.294049,9.8404298 7.70318,8.567792 7.64732,8.085903 7.64732,65.973113 v 50.657466 l 8.98086,1.10577 c 14.35594,1.76757 21.09257,5.54308 25.56471,14.32762 2.99121,5.87559 4.20174,13.7324 4.92638,31.97432 0.83294,20.96787 2.64455,30.81553 6.80911,37.0133 1.997,2.97197 2.89374,3.44004 7.10806,3.71016 5.26769,0.33763 7.65986,-1.06938 10.2133,-6.00718 3.50054,-6.76929 4.51464,-15.29404 5.43643,-45.69964 l 0.92155,-30.3977 -12.33002,-12.72635 c -16.77872,-17.31803 -16.98442,-17.78957 -17.4399,-39.978246 l -0.35923,-17.499998 -10.72908,-11 c -16.47602,-16.89206 -18.10217,-18.962535 -18.10217,-23.048335 0,-4.846847 3.64436,-8.451665 8.54436,-8.451665 3.10552,0 4.80891,1.056515 11.68894,7.25 11.36154,10.227786 44.04689,44.882888 49.37786,52.353578 7.81673,10.95416 7.58783,8.84894 7.13137,65.586646 -0.37909,47.12109 -0.53757,50.81682 -2.50031,58.30977 -2.89609,11.05606 -5.45574,16.62217 -9.92225,21.57659 -5.48601,6.08528 -12.12153,8.91215 -20.81997,8.86975 -12.90584,-0.0629 -20.29487,-4.68636 -25.99145,-16.26333 -4.85099,-9.85849 -6.33745,-17.8785 -7.63303,-41.18301 -0.61153,-11 -1.62119,-21.56894 -2.24369,-23.48654 -1.39021,-4.28248 -4.23164,-5.72867 -12.13183,-6.17471 l -6,-0.33875 -0.26031,44.11749 -0.2603,44.11748 3.7603,0.62151 c 2.06817,0.34183 5.36937,0.62646 7.336,0.63251 5.3905,0.0166 7.5643,3.00705 8.18577,11.26101 l 0.50823,6.75 H 93.553241 0.66839373 Z M 144.13359,96.228014 l 3.5348,-3.10359 V 60.662272 c 0,-33.738923 -0.15987,-35.150492 -4.36704,-38.55843 -1.9536,-1.58248 -6.15463,-1.729634 -49.959879,-1.75 l -47.826923,-0.02224 -2.923077,2.923077 -2.923077,2.923077 v 33.142668 c 0,21.79549 0.369331,33.83277 1.078737,35.1583 2.452447,4.58244 4.566578,4.77218 53.636467,4.81374 l 46.215202,0.0391 z"
     id="path4528"
     inkscape:connector-curvature="0" />
</svg>
