<?xml version="1.0" encoding="UTF-8" standalone="no"?>
<!-- Created with Inkscape (http://www.inkscape.org/) -->

<svg
   xmlns:dc="http://purl.org/dc/elements/1.1/"
   xmlns:cc="http://creativecommons.org/ns#"
   xmlns:rdf="http://www.w3.org/1999/02/22-rdf-syntax-ns#"
   xmlns:svg="http://www.w3.org/2000/svg"
   xmlns="http://www.w3.org/2000/svg"
   xmlns:sodipodi="http://sodipodi.sourceforge.net/DTD/sodipodi-0.dtd"
   xmlns:inkscape="http://www.inkscape.org/namespaces/inkscape"
   version="1.1"
   id="svg4518"
   width="256"
   height="256"
   viewBox="0 0 256 256"
   sodipodi:docname="restaurant.svg"
   inkscape:version="0.92.4 (5da689c313, 2019-01-14)"
   inkscape:export-filename="D:\_x\a\GitHub\osmtruckmap\src\img\icones\fuel.png"
   inkscape:export-xdpi="96"
   inkscape:export-ydpi="96">
  <metadata
     id="metadata4524">
    <rdf:RDF>
      <cc:Work
         rdf:about="">
        <dc:format>image/svg+xml</dc:format>
        <dc:type
           rdf:resource="http://purl.org/dc/dcmitype/StillImage" />
        <dc:title></dc:title>
      </cc:Work>
    </rdf:RDF>
  </metadata>
  <defs
     id="defs4522" />
  <sodipodi:namedview
     pagecolor="#ffffff"
     bordercolor="#666666"
     borderopacity="1"
     objecttolerance="10"
     gridtolerance="10"
     guidetolerance="10"
     inkscape:pageopacity="0"
     inkscape:pageshadow="2"
     inkscape:window-width="1280"
     inkscape:window-height="971"
     id="namedview4520"
     showgrid="false"
     inkscape:zoom="3.015625"
     inkscape:cx="128"
     inkscape:cy="128"
     inkscape:window-x="-8"
     inkscape:window-y="-8"
     inkscape:window-maximized="1"
     inkscape:current-layer="svg4518" />
  <g
     transform="matrix(5.5688663,0,0,5.583545,2.0322577,1.0427943)"
     id="g4573">
    <path
       inkscape:connector-curvature="0"
       d="m 43.604,41.146 c 0.703,0.64 0.945,2.207 0.037,3.107 -0.902,0.909 -2.472,0.668 -3.109,-0.034 C 34.639,37.891 28.749,31.56 22.856,25.23 l -0.67,-0.715 C 16.022,31.133 9.86,37.754 3.698,44.375 3.063,45.076 1.496,45.318 0.594,44.409 -0.316,43.508 -0.076,41.937 0.626,41.3 7.268,35.122 13.905,28.942 20.546,22.761 c 0,0 -3.214,-3.467 -4.6,-4.955 C 12.703,20.131 7.897,19.247 5.008,15.68 1.901,11.917 -0.779,5.187 1.815,2.431 c 2.759,-2.596 9.485,0.09 13.248,3.194 3.566,2.892 4.455,7.691 2.125,10.936 1.67,1.556 3.34,3.108 5.012,4.663 -0.004,0.003 -0.006,0.005 -0.01,0.008 0,0 0.104,0.082 0.01,-0.008 1.562,-1.455 3.125,-2.909 4.688,-4.364 -1.32,-2.254 -0.443,-5.415 1.701,-7.219 2.459,-2.061 11.57,-9.883 11.815,-9.635 0.244,0.243 -6.146,6.281 -10.415,10.563 l 0.712,0.711 C 35.258,7.286 41.691,1.296 41.939,1.54 42.183,1.785 35.993,8.02 31.863,12.445 L 32.57,13.15 C 36.988,9.017 43.225,2.826 43.467,3.069 c 0.245,0.246 -5.746,6.68 -9.74,11.237 l 0.707,0.706 C 38.714,10.743 44.749,4.353 44.996,4.595 45.243,4.841 35.378,16.4 35.364,16.417 c -0.002,-0.002 2.094,-2.462 -0.008,-0.006 -2.006,2.347 -5.002,3.057 -7.217,1.705 -1.438,1.543 -2.873,3.086 -4.309,4.629 -0.126,-0.119 13.184,12.268 19.774,18.401 z"
       id="path4571" />
  </g>
</svg>
