<?xml version="1.0" encoding="UTF-8" standalone="no"?>
<!-- Created with Inkscape (http://www.inkscape.org/) -->

<svg
   xmlns:dc="http://purl.org/dc/elements/1.1/"
   xmlns:cc="http://creativecommons.org/ns#"
   xmlns:rdf="http://www.w3.org/1999/02/22-rdf-syntax-ns#"
   xmlns:svg="http://www.w3.org/2000/svg"
   xmlns="http://www.w3.org/2000/svg"
   xmlns:sodipodi="http://sodipodi.sourceforge.net/DTD/sodipodi-0.dtd"
   xmlns:inkscape="http://www.inkscape.org/namespaces/inkscape"
   version="1.1"
   id="svg4518"
   width="256"
   height="256"
   viewBox="0 0 256 256"
   sodipodi:docname="shower.svg"
   inkscape:version="0.92.4 (5da689c313, 2019-01-14)"
   inkscape:export-filename="D:\_x\a\GitHub\osmtruckmap\src\img\icones\fuel.png"
   inkscape:export-xdpi="96"
   inkscape:export-ydpi="96">
  <metadata
     id="metadata4524">
    <rdf:RDF>
      <cc:Work
         rdf:about="">
        <dc:format>image/svg+xml</dc:format>
        <dc:type
           rdf:resource="http://purl.org/dc/dcmitype/StillImage" />
        <dc:title></dc:title>
      </cc:Work>
    </rdf:RDF>
  </metadata>
  <defs
     id="defs4522" />
  <sodipodi:namedview
     pagecolor="#ffffff"
     bordercolor="#666666"
     borderopacity="1"
     objecttolerance="10"
     gridtolerance="10"
     guidetolerance="10"
     inkscape:pageopacity="0"
     inkscape:pageshadow="2"
     inkscape:window-width="1280"
     inkscape:window-height="971"
     id="namedview4520"
     showgrid="false"
     inkscape:zoom="3.015625"
     inkscape:cx="124.94746"
     inkscape:cy="121.60529"
     inkscape:window-x="-8"
     inkscape:window-y="-8"
     inkscape:window-maximized="1"
     inkscape:current-layer="svg4518" />
  <path
     style="stroke-width:0.54821718"
     inkscape:connector-curvature="0"
     d="m 248.1128,111.51396 c 2.56893,0 4.6518,-1.85142 4.6518,-4.1349 V 8.1418004 c 0,-2.2834715 -2.08287,-4.1348949 -4.6518,-4.1348949 -20.12907,0 -51.16989,14.2076165 -51.16989,33.0790885 v 4.134895 H 99.254967 C 86.414797,41.235182 76.011818,50.48199 75.995935,61.89531 v 19.7033 c -4.642728,3.662448 -7.774962,8.598887 -8.903857,14.025906 -28.140251,3.751285 -49.529937,24.435814 -51.374299,49.675184 -6.4757489,1.92813 -10.4188725,7.74685 -9.3127031,13.73719 1.1084292,5.99034 6.9413661,10.38163 13.7691671,10.36547 H 159.72846 c 6.8278,0.0161 12.66073,-4.37513 13.76917,-10.36547 1.10617,-5.99034 -2.83697,-11.80906 -9.31271,-13.73719 -1.84436,-25.23937 -23.23404,-45.923899 -51.3743,-49.675184 -1.12888,-5.427019 -4.26113,-10.363458 -8.90385,-14.025906 V 66.030205 h 93.03614 v 12.404667 c 0,18.871471 31.04082,33.079088 51.16989,33.079088 z M 206.24652,37.085994 c 0,-11.990754 21.45328,-22.634871 37.21447,-24.516561 V 102.95143 C 227.6998,101.06974 206.24652,90.425626 206.24652,78.434872 Z M 103.06863,94.974416 H 76.834082 c 1.571798,-4.197484 5.115158,-8.269772 8.465464,-8.269772 h 9.303621 c 3.363929,0 6.893653,4.072288 8.465463,8.269772 z m 56.65983,66.158174 H 20.174243 c -2.568942,0 -4.651811,-1.8514 -4.651811,-4.13489 0,-2.28347 2.082869,-4.13488 4.651811,-4.13488 H 159.72846 c 2.56894,0 4.6518,1.85141 4.6518,4.13488 0,2.28349 -2.08286,4.13489 -4.6518,4.13489 z m -4.86078,-16.53954 H 25.035012 c 2.437201,-23.40815 24.515124,-41.3206 50.960923,-41.34886 h 27.910835 c 26.4458,0.0282 48.52371,17.94071 50.96091,41.34886 z M 99.254967,57.760433 c -2.568942,0 -4.6518,1.851405 -4.6518,4.134877 V 78.434872 H 85.299546 V 61.89531 c 0,-6.850415 6.248595,-12.404649 13.955421,-12.404649 h 97.687943 v 8.269772 z m 0,0"
     id="path5223" />
  <path
     style="stroke-width:0.54821718"
     inkscape:connector-curvature="0"
     d="m 29.477843,181.80703 c 0,-2.28349 -2.082858,-4.13489 -4.651789,-4.13489 -2.568953,0 -4.651811,1.8514 -4.651811,4.13489 v 4.13488 c 0,2.28347 2.082858,4.13488 4.651811,4.13488 2.568931,0 4.651789,-1.85141 4.651789,-4.13488 z m 0,0"
     id="path5225" />
  <path
     style="stroke-width:0.54821718"
     inkscape:connector-curvature="0"
     d="m 48.085093,181.80703 c 0,-2.28349 -2.082869,-4.13489 -4.651816,-4.13489 -2.568942,0 -4.651811,1.8514 -4.651811,4.13489 v 24.80932 c 0,2.28347 2.082869,4.13487 4.651811,4.13487 2.568947,0 4.651816,-1.8514 4.651816,-4.13487 z m 0,0"
     id="path5227" />
  <path
     style="stroke-width:0.54821718"
     inkscape:connector-curvature="0"
     d="m 66.692325,181.80703 c 0,-2.28349 -2.082869,-4.13489 -4.651822,-4.13489 -2.568942,0 -4.6518,1.8514 -4.6518,4.13489 v 4.13488 c 0,2.28347 2.082858,4.13488 4.6518,4.13488 2.568953,0 4.651822,-1.85141 4.651822,-4.13488 z m 0,0"
     id="path5229" />
  <path
     style="stroke-width:0.54821718"
     inkscape:connector-curvature="0"
     d="m 85.299546,181.80703 c 0,-2.28349 -2.082869,-4.13489 -4.651811,-4.13489 -2.568931,0 -4.6518,1.8514 -4.6518,4.13489 v 24.80932 c 0,2.28347 2.082869,4.13487 4.6518,4.13487 2.568942,0 4.651811,-1.8514 4.651811,-4.13487 z m 0,0"
     id="path5231" />
  <path
     style="stroke-width:0.54821718"
     inkscape:connector-curvature="0"
     d="m 103.90677,181.80703 c 0,-2.28349 -2.08286,-4.13489 -4.651803,-4.13489 -2.568942,0 -4.6518,1.8514 -4.6518,4.13489 v 4.13488 c 0,2.28347 2.082858,4.13488 4.6518,4.13488 2.568943,0 4.651803,-1.85141 4.651803,-4.13488 z m 0,0"
     id="path5233" />
  <path
     style="stroke-width:0.54821718"
     inkscape:connector-curvature="0"
     d="m 122.51399,181.80703 c 0,-2.28349 -2.08285,-4.13489 -4.6518,-4.13489 -2.56895,0 -4.65181,1.8514 -4.65181,4.13489 v 24.80932 c 0,2.28347 2.08286,4.13487 4.65181,4.13487 2.56895,0 4.6518,-1.8514 4.6518,-4.13487 z m 0,0"
     id="path5235" />
  <path
     style="stroke-width:0.54821718"
     inkscape:connector-curvature="0"
     d="m 141.12123,181.80703 c 0,-2.28349 -2.08287,-4.13489 -4.6518,-4.13489 -2.56896,0 -4.65181,1.8514 -4.65181,4.13489 v 4.13488 c 0,2.28347 2.08285,4.13488 4.65181,4.13488 2.56893,0 4.6518,-1.85141 4.6518,-4.13488 z m 0,0"
     id="path5237" />
  <path
     style="stroke-width:0.54821718"
     inkscape:connector-curvature="0"
     d="m 43.433277,219.021 c -2.568942,0 -4.651811,1.8514 -4.651811,4.13487 v 12.40467 c 0,2.28347 2.082869,4.1349 4.651811,4.1349 2.568947,0 4.651816,-1.85143 4.651816,-4.1349 v -12.40467 c 0,-2.28347 -2.082869,-4.13487 -4.651816,-4.13487 z m 0,0"
     id="path5239" />
  <path
     style="stroke-width:0.54821718"
     inkscape:connector-curvature="0"
     d="m 80.647735,219.021 c -2.568931,0 -4.6518,1.8514 -4.6518,4.13487 v 12.40467 c 0,2.28347 2.082869,4.1349 4.6518,4.1349 2.568942,0 4.651811,-1.85143 4.651811,-4.1349 v -12.40467 c 0,-2.28347 -2.082869,-4.13487 -4.651811,-4.13487 z m 0,0"
     id="path5241" />
  <path
     style="stroke-width:0.54821718"
     inkscape:connector-curvature="0"
     d="m 117.86219,219.021 c -2.56895,0 -4.65181,1.8514 -4.65181,4.13487 v 12.40467 c 0,2.28347 2.08286,4.1349 4.65181,4.1349 2.56895,0 4.6518,-1.85143 4.6518,-4.1349 v -12.40467 c 0,-2.28347 -2.08285,-4.13487 -4.6518,-4.13487 z m 0,0"
     id="path5243" />
  <path
     style="stroke-width:0.54821718"
     inkscape:connector-curvature="0"
     d="m 155.07665,219.021 c -2.56894,0 -4.65181,1.8514 -4.65181,4.13487 v 12.40467 c 0,2.28347 2.08287,4.1349 4.65181,4.1349 2.56894,0 4.65181,-1.85143 4.65181,-4.1349 v -12.40467 c 0,-2.28347 -2.08287,-4.13487 -4.65181,-4.13487 z m 0,0"
     id="path5245" />
  <path
     style="stroke-width:0.54821718"
     inkscape:connector-curvature="0"
     d="m 159.72846,181.80703 c 0,-2.28349 -2.08287,-4.13489 -4.65181,-4.13489 -2.56894,0 -4.65181,1.8514 -4.65181,4.13489 v 24.80932 c 0,2.28347 2.08287,4.13487 4.65181,4.13487 2.56894,0 4.65181,-1.8514 4.65181,-4.13487 z m 0,0"
     id="path5247" />
  <path
     style="stroke-width:0.54821718"
     inkscape:connector-curvature="0"
     d="m 29.477843,202.48145 c 0,-2.28349 -2.082858,-4.13487 -4.651789,-4.13487 -2.568953,0 -4.651811,1.85138 -4.651811,4.13487 v 24.80932 c 0,2.28347 2.082858,4.13489 4.651811,4.13489 2.568931,0 4.651789,-1.85142 4.651789,-4.13489 z m 0,0"
     id="path5249" />
  <path
     style="stroke-width:0.54821718"
     inkscape:connector-curvature="0"
     d="m 66.692325,202.48145 c 0,-2.28349 -2.082869,-4.13487 -4.651822,-4.13487 -2.568942,0 -4.6518,1.85138 -4.6518,4.13487 v 24.80932 c 0,2.28347 2.082858,4.13489 4.6518,4.13489 2.568953,0 4.651822,-1.85142 4.651822,-4.13489 z m 0,0"
     id="path5251" />
  <path
     style="stroke-width:0.54821718"
     inkscape:connector-curvature="0"
     d="m 103.90677,202.48145 c 0,-2.28349 -2.08286,-4.13487 -4.651803,-4.13487 -2.568942,0 -4.6518,1.85138 -4.6518,4.13487 v 24.80932 c 0,2.28347 2.082858,4.13489 4.6518,4.13489 2.568943,0 4.651803,-1.85142 4.651803,-4.13489 z m 0,0"
     id="path5253" />
  <path
     style="stroke-width:0.54821718"
     inkscape:connector-curvature="0"
     d="m 141.12123,202.48145 c 0,-2.28349 -2.08287,-4.13487 -4.6518,-4.13487 -2.56896,0 -4.65181,1.85138 -4.65181,4.13487 v 24.80932 c 0,2.28347 2.08285,4.13489 4.65181,4.13489 2.56893,0 4.6518,-1.85142 4.6518,-4.13489 z m 0,0"
     id="path5255" />
  <path
     style="stroke-width:0.54821718"
     inkscape:connector-curvature="0"
     d="m 26.593187,239.98011 c -0.858581,-0.29477 -1.7944,-0.36543 -2.698412,-0.2019 -0.283916,0.0506 -0.563302,0.11703 -0.835866,0.2019 -0.288467,0.12525 -0.570124,0.26246 -0.842687,0.41388 -0.240767,0.15348 -0.472451,0.319 -0.692783,0.49668 -0.411127,0.40178 -0.740463,0.86413 -0.976689,1.36484 -0.261211,0.4906 -0.388411,1.03169 -0.372507,1.5748 -0.02271,1.68383 1.106169,3.2102 2.852858,3.86233 1.744429,0.65012 3.761433,0.29478 5.097005,-0.89845 1.335573,-1.19321 1.723974,-2.98609 0.98124,-4.53464 -0.224862,-0.50677 -0.55649,-0.96912 -0.976699,-1.36485 -0.463369,-0.36342 -0.98124,-0.6703 -1.53546,-0.91459 z m 0,0"
     id="path5257" />
  <path
     style="stroke-width:0.54821718"
     inkscape:connector-curvature="0"
     d="m 58.737899,240.8947 c -0.420208,0.39573 -0.751815,0.85808 -0.976688,1.36485 -0.742744,1.53848 -0.354333,3.32325 0.976688,4.50637 0.445195,0.37352 0.965347,0.66829 1.535471,0.86817 1.730806,0.66021 3.738706,0.31698 5.069748,-0.86817 1.333292,-1.18312 1.719444,-2.96789 0.976678,-4.50637 -0.236225,-0.50071 -0.565562,-0.96307 -0.976678,-1.36485 -1.864817,-1.53038 -4.740401,-1.53038 -6.605219,0 z m 0,0"
     id="path5259" />
  <path
     style="stroke-width:0.54821718"
     inkscape:connector-curvature="0"
     d="m 101.81255,240.39805 c -0.24757,-0.15956 -0.51332,-0.2968 -0.79045,-0.41392 -0.28846,-0.0888 -0.58601,-0.15741 -0.8881,-0.20188 -0.885844,-0.16152 -1.80576,-0.0909 -2.646167,0.20188 -0.55649,0.2443 -1.072101,0.55121 -1.53547,0.91461 -0.420198,0.39573 -0.751826,0.85808 -0.976699,1.36485 -0.742744,1.53846 -0.354344,3.32325 0.976699,4.50637 0.452016,0.36544 0.972158,0.65819 1.53547,0.86817 1.730796,0.66019 3.738697,0.31698 5.069737,-0.86817 1.33331,-1.18312 1.71944,-2.96791 0.9767,-4.50637 -0.23623,-0.50072 -0.56558,-0.96307 -0.9767,-1.36485 -0.22941,-0.18775 -0.47699,-0.35534 -0.74502,-0.50069 z m 0,0"
     id="path5261" />
  <path
     style="stroke-width:0.54821718"
     inkscape:connector-curvature="0"
     d="m 133.16681,240.8947 c -0.4202,0.39573 -0.75182,0.85808 -0.97669,1.36485 -0.26121,0.49061 -0.3884,1.02765 -0.3725,1.57076 -0.0113,1.10036 0.47471,2.15831 1.34919,2.93561 0.45202,0.36544 0.97216,0.6582 1.53547,0.86817 1.43098,0.54513 3.07318,0.41188 4.36789,-0.35534 1.29468,-0.76722 2.06695,-2.06542 2.05106,-3.44844 0.0136,-0.54311 -0.11357,-1.08015 -0.37252,-1.57076 -0.23622,-0.50071 -0.56556,-0.96307 -0.97669,-1.36485 -1.86481,-1.53038 -4.74039,-1.53038 -6.60521,0 z m 0,0"
     id="path5263" />
</svg>
