<?xml version="1.0" encoding="UTF-8"?>
<svg enable-background="new 0 0 2685.5593 1501.792" version="1.1" viewBox="0 0 2685.5593 1501.792" xmlns="http://www.w3.org/2000/svg">
 <polygon points="776.95 35.107 635.69 35.107 619.07 109.89 757.56 109.89"/>
 <path d="m2164.4 549.85c-37.14 0-73.236 4.4484-107.82 12.785l-110.69-363.18 67.845-18.944c5.1246 2.5195 10.887 3.9401 16.983 3.9401 21.289 0 38.548-17.258 38.548-38.548 0-21.289-17.258-38.548-38.548-38.548s-38.548 17.258-38.548 38.548c0 3.0773 0.3713 6.0663 1.0525 8.9351l-121.2 31.228 35.15 114.56-1034.6 189.08-135.26-346.58h-62.784l149.5 380.69-64.492 92.741c-69.436-42.329-151-66.721-238.27-66.721-253.18 0-458.42 205.24-458.42 458.42s205.24 458.42 458.42 458.42c222.03 0 407.19-157.86 449.38-367.46 16.846 19.492 41.73 31.844 69.515 31.844 50.737 0 91.868-41.131 91.868-91.868 0-12.822-2.6345-25.027-7.3795-36.113l801.33-641.26 67.77 220.88c-168.64 67.701-287.74 232.71-287.74 425.56 0 253.18 205.24 458.42 458.42 458.42s458.42-205.24 458.42-458.42-205.24-458.42-458.42-458.42zm-1643.2 852.21c-217.48 0-393.79-176.3-393.79-393.79s176.3-393.79 393.79-393.79c73.55 0 142.38 20.186 201.28 55.287l-201.12 289.21c-2.2325-0.3667-4.5212-0.5661-6.8574-0.5661-23.202 0-42.01 18.809-42.01 42.01 0 23.202 18.809 42.01 42.01 42.01 15.557 0 29.129-8.4629 36.39-21.03l360.56 39.676c-25.806 192.51-190.68 340.98-390.25 340.98zm393.14-371.35l-358.48-37.644c-1.4243-8.0541-5.1346-15.317-10.449-21.087l203.31-285.14c100.6 71.34 166.26 188.72 166.26 321.44-1e-4 7.5317-0.2328 15.008-0.6501 22.436zm63.8-59.33c-11.083-139.15-84.287-260.79-191.89-337.17l52.271-73.309 156.42 398.31c-6.0578 3.4272-11.697 7.5061-16.8 12.169zm129.84 5.9287c-14.411-15.796-34.266-26.519-56.592-29.257l-160.79-412 993.3-182-775.92 623.26zm1056.4 424.75c-217.48 0-393.79-176.3-393.79-393.79 0-163.74 99.944-304.12 242.15-363.51l107.42 350.12c-2.0935 5.4475-3.2522 11.358-3.2522 17.543 0 27.026 21.909 48.935 48.935 48.935s48.935-21.909 48.935-48.935c0-22.352-14.992-41.19-35.465-47.042l-103.88-340.81c28.582-6.5984 58.354-10.086 88.94-10.086 217.48 0 393.79 176.3 393.79 393.79s-176.3 393.79-393.79 393.79z"/>
</svg>
