<?xml version="1.0" encoding="UTF-8"?>
<svg viewBox="0 0 183.30092 419.3942" xmlns="http://www.w3.org/2000/svg" xmlns:xlink="http://www.w3.org/1999/xlink">
 <g transform="translate(1286 -1836.6)">
  <path d="m-1212.9 2012.8 27.117 0.9435 0.681-31.158-24.423-1.1187-3.3752 31.333z" fill="#17280b" stroke="#000" stroke-width="5.3454"/>
  <path d="m-1219.4 2135.2-7.2011 85.691 37.868 4.8834-2.4417 18.934 37.379 8.6702 8.6702-37.38-44.953-9.6469-1.165-65.596-28.156-5.5559z" fill="#17280b" stroke="#000" stroke-width="5.3454"/>
  <g id="a">
   <path transform="rotate(3.0843)" d="m-1165.3 2064.1h160.11v145.29h-160.11z" fill="#1a1a1a"/>
   <path d="m-1283 2144.5 7.8265-145.25 159.37 8.5875-7.7722 144.24" fill="none" stroke="#d2a800" stroke-width="6"/>
  </g>
  <use transform="translate(10.102 -159.6)" width="478.69809" height="516.0528" xlink:href="#a"/>
  <path d="m-1205.1 1921.7s-0.9235-7.3713-0.861-9.3047 4.7471-15.302 4.7471-15.302l-5.045 0.6069-2.5533 19.239-5.4408 0.9865 0.4337-25.49 27.834-13.356c-1.353-1.4388-2.1543-3.3917-2.0855-5.5223 0.1373-4.2541 3.6971-7.592 7.9512-7.4546s7.5918 3.6977 7.4546 7.9512-3.7 7.5875-7.9515 7.4501c-0.2963 0-0.5792-0.064-0.8567-0.113l0.4591 0.489s1.035 3.9243 2.5287 5.5156l4.1205 15.977 15.493 10.932-3.2363 4.5352-16.044-5.9266-4.742-8.6562-5.7917 11.795 7.9744 16.49 8.5527 34.284-8.9899 3.1838-8.6842-30.419-5.1793-7.1253-16.264 36.962-7.9825-4.1193 14.161-43.6" fill="#fff" fill-rule="evenodd"/>
 </g>
</svg>
