<?xml version="1.0" encoding="UTF-8" standalone="no"?>
<svg
   xmlns:dc="http://purl.org/dc/elements/1.1/"
   xmlns:cc="http://creativecommons.org/ns#"
   xmlns:rdf="http://www.w3.org/1999/02/22-rdf-syntax-ns#"
   xmlns:svg="http://www.w3.org/2000/svg"
   xmlns="http://www.w3.org/2000/svg"
   xmlns:xlink="http://www.w3.org/1999/xlink"
   xmlns:sodipodi="http://sodipodi.sourceforge.net/DTD/sodipodi-0.dtd"
   xmlns:inkscape="http://www.inkscape.org/namespaces/inkscape"
   width="793.70081"
   height="793.70081"
   viewBox="0 0 210 210"
   version="1.1"
   id="svg8"
   sodipodi:docname="traffic_signals.svg"
   inkscape:version="1.0.1 (3bc2e813f5, 2020-09-07)">
  <defs
     id="defs2">
    <clipPath
       clipPathUnits="userSpaceOnUse"
       id="clipPath1880">
      <path
         id="path1882"
         style="fill:#ff0000;fill-opacity:1;fill-rule:nonzero;stroke:none;stroke-width:0.264583px;stroke-linecap:butt;stroke-linejoin:miter;stroke-opacity:1"
         d="M -51.404762,-15.119047 H 256.26791 V 235.10118 H -51.404762 Z" />
    </clipPath>
  </defs>
  <sodipodi:namedview
     id="base"
     pagecolor="#ffffff"
     bordercolor="#666666"
     borderopacity="1.0"
     inkscape:pageopacity="0.0"
     inkscape:pageshadow="2"
     inkscape:zoom="1.979899"
     inkscape:cx="664.32376"
     inkscape:cy="292.74452"
     inkscape:document-units="px"
     inkscape:current-layer="g2615"
     inkscape:document-rotation="0"
     showgrid="false"
     units="px"
     showborder="true"
     inkscape:showpageshadow="false"
     inkscape:window-width="1920"
     inkscape:window-height="1027"
     inkscape:window-x="-8"
     inkscape:window-y="-8"
     inkscape:window-maximized="1" />
  <metadata
     id="metadata5">
    <rdf:RDF>
      <cc:Work
         rdf:about="">
        <dc:format>image/svg+xml</dc:format>
        <dc:type
           rdf:resource="http://purl.org/dc/dcmitype/StillImage" />
        <dc:title />
      </cc:Work>
    </rdf:RDF>
  </metadata>
  <g
     inkscape:groupmode="layer"
     id="layer2"
     inkscape:label="Capa 2"
     style="display:inline">
    <path
       d="M -303.31862,203.51519 H 230.3724 L 45.01326,75.017644 h -163.41988 z"
       fill="#999999"
       fill-rule="evenodd"
       id="path901"
       style="stroke-width:0.264583" />
    <path
       d="m 91.88949,69.32016 241.90854,116.51721 c -34.70011,-0.16952 -69.40815,0.50771 -104.10561,0 l 0.004,17.23337 L 45.52261,75.181739 45.47301,69.450864 Z"
       fill="#ffffff"
       fill-rule="evenodd"
       stroke="#000000"
       stroke-width="0.79375"
       id="path909" />
    <path
       d="M 230.31949,186.52365 45.61387,69.66777"
       fill="none"
       stroke="#000000"
       stroke-width="0.79375"
       id="path911" />
    <path
       d="M -26.6703,158.15767 H -2.3625003 L -13.04955,118.55219 H -28.7658 Z"
       fill="#ffffff"
       fill-rule="evenodd"
       stroke="#000000"
       stroke-width="0.529167"
       id="path913" />
    <path
       d="M 19.42012,158.15767 H 43.51837 L 20.46787,118.76121 H 4.1229697 Z"
       fill="#ffffff"
       fill-rule="evenodd"
       stroke="#000000"
       stroke-width="0.529167"
       id="path915" />
    <path
       d="M 65.11366,158.15767 H 89.21191 L 52.9587,118.76121 H 37.0329 l 28.08023,39.39646 z"
       fill="#ffffff"
       fill-rule="evenodd"
       stroke="#000000"
       stroke-width="0.529167"
       id="path917" />
    <path
       d="m 111.17761,158.08094 h 24.09825 L 86.66132,118.89615 H 70.52597 l 40.65323,39.18479 z"
       fill="#ffffff"
       fill-rule="evenodd"
       stroke="#000000"
       stroke-width="0.529167"
       id="path919" />
    <path
       d="M 247.34807,186.14 48.40787,69.678353"
       fill="none"
       stroke="#000000"
       stroke-dashoffset="13"
       stroke-width="0.785812"
       id="path943" />
    <g
       transform="matrix(0.20747302,0,0,0.25752503,129.58203,172.12264)"
       id="g955">
      <path
         d="m 342.91,-752.03 c 0,25.537 -20.702,46.238 -46.238,46.238 -25.537,0 -46.238,-20.702 -46.238,-46.238 0,-25.537 20.702,-46.238 46.238,-46.238 25.537,0 46.238,20.702 46.238,46.238 z"
         color="#000000"
         fill="#ffffff"
         stroke="#000000"
         stroke-width="3"
         id="path945" />
      <path
         d="m 275.62,-712.22 v 9.5312 h 1.5312 c 0.007,0.80358 0.0197,0.95957 0.0625,2 0.082,1.9951 1.4134,2.4446 3.5313,4.5625 1.4438,1.4438 3.6393,1.7346 4.9062,1.7812 v 336.16 l -6.2188,44.438 v 225.78 h 37.125 v -225.78 l -6.2188,-44.438 v -336.41 c 1.0112,-0.24582 2.0849,-0.70988 2.9063,-1.5312 2.1179,-2.1179 3.3374,-2.5752 3.5313,-4.5625 0.10146,-1.0404 0.0869,-1.079 0.0937,-2 h 1.6875 v -9.5312 z"
         fill="#ab2524"
         fill-rule="evenodd"
         stroke="#000000"
         stroke-dashoffset="13"
         stroke-width="3"
         id="path947" />
      <path
         d="m 287.1,-446.52 h 21.673 v 89.146 H 287.1 Z"
         fill="#ffffff"
         fill-rule="evenodd"
         id="path949" />
      <path
         d="m 280.89,-266.52 h 34.081 v 89.146 H 280.89 Z"
         fill="#ffffff"
         fill-rule="evenodd"
         id="path951" />
      <path
         d="m 287.1,-626.52 h 21.673 v 89.146 H 287.1 Z"
         fill="#ffffff"
         fill-rule="evenodd"
         id="path953" />
    </g>
  </g>
  <g
     inkscape:groupmode="layer"
     id="layer8"
     inkscape:label="Capa 7">
    <g
       transform="matrix(0.09151281,0,0,0.09151281,300.14344,-127.0644)"
       id="g2615">
      <path
         d="m -1212.9,2012.8 27.117,0.9435 0.681,-31.158 -24.423,-1.1187 -3.3752,31.333 z"
         fill="#17280b"
         stroke="#000000"
         stroke-width="5.3454"
         id="path2602" />
      <path
         d="m -1219.4,2135.2 -7.2011,85.691 37.868,4.8834 -2.4417,18.934 37.379,8.6702 8.6702,-37.38 -44.953,-9.6469 -1.165,-65.596 -28.156,-5.5559 z"
         fill="#17280b"
         stroke="#000000"
         stroke-width="5.3454"
         id="path2604" />
      <g
         id="a"
         transform="matrix(2.1885921,0,0,2.1885921,1372.1524,-2554.4193)">
        <path
           transform="rotate(3.0843)"
           d="m -1165.3,2064.1 h 160.11 v 145.29 h -160.11 z"
           fill="#1a1a1a"
           id="path2606" />
        <path
           d="m -1283,2144.5 7.8265,-145.25 159.37,8.5875 -7.7722,144.24"
           fill="none"
           stroke="#d2a800"
           stroke-width="6"
           id="path2608" />
      </g>
      <use
         transform="translate(22.109154,-349.29929)"
         width="478.69809"
         height="516.0528"
         xlink:href="#a"
         id="use2611"
         x="0"
         y="0" />
      <path
         d="m -1265.3199,1651.3981 c 0,0 -2.0211,-16.1328 -1.8843,-20.3642 0.1378,-4.2314 10.3894,-33.4899 10.3894,-33.4899 l -11.0414,1.3283 -5.5882,42.1063 -11.9076,2.1591 0.9491,-55.7872 60.9173,-29.2309 c -2.9612,-3.1489 -4.7149,-7.423 -4.5643,-12.086 0.3005,-9.3105 8.0914,-16.6158 17.4019,-16.3151 9.3105,0.3007 16.6154,8.0927 16.3151,17.4019 -0.3003,9.3092 -8.0978,16.606 -17.4026,16.3052 -0.6485,0 -1.2676,-0.14 -1.8749,-0.2473 l 1.0047,1.0703 c 0,0 2.2652,8.5886 5.5343,12.0714 l 9.0181,34.9671 33.9079,23.9257 -7.083,9.9257 -35.1137,-12.9709 -10.3783,-18.9449 -12.6757,25.8144 17.4527,36.0899 18.7184,75.0337 -19.6752,6.968 -19.0062,-66.5747 -11.3354,-15.5944 -35.5952,80.8947 -17.4705,-9.0155 30.9927,-95.4226"
         fill="#ffffff"
         fill-rule="evenodd"
         id="path2613"
         style="stroke-width:2.18859" />
    </g>
  </g>
  <g
     inkscape:groupmode="layer"
     id="layer3"
     inkscape:label="Capa 3"
     style="display:inline;opacity:0.64717">
    <rect
       style="fill:none;fill-opacity:1;stroke:none;stroke-width:4.10739;stroke-linejoin:round;stroke-opacity:1"
       id="rect1771"
       width="307.67264"
       height="250.22023"
       x="-51.404762"
       y="-15.119047"
       clip-path="url(#clipPath1880)"
       transform="matrix(0.69287472,0,0,0.84894259,34.861106,12.079251)" />
  </g>
  <g
     inkscape:groupmode="layer"
     id="layer5"
     inkscape:label="Capa 4"
     style="display:none">
    <rect
       style="fill:none;fill-opacity:1;stroke:#000000;stroke-width:4.10739;stroke-linejoin:round;stroke-opacity:1"
       id="rect1897"
       width="213.17859"
       height="212.42261"
       x="-0.75595409"
       y="-0.75595194" />
  </g>
  <g
     inkscape:groupmode="layer"
     id="layer6"
     inkscape:label="Capa 5" />
  <g
     inkscape:groupmode="layer"
     id="layer7"
     inkscape:label="Capa 6"
     style="display:none">
    <path
       d="m 135.62735,88.4153 c 0,0 -5.43141,0.17366 -11.91099,10.53877 -1.95861,3.13179 -3.43455,8.93374 -6.41388,10.53877 -2.97933,1.60503 -7.32231,1.40599 -8.24763,2.51979 -2.24664,2.69986 0.28171,4.96555 0.28171,4.96555 0,0 1.44833,0.65866 3.28425,0.8661 4.56955,0.5186 7.31383,-1.07146 7.31383,-1.07146 0,0 6.9877,-3.07889 9.281,-7.50871 1.22816,-2.37365 2.74852,0.22889 2.51979,2.29114 -0.22889,2.06249 0.8661,7.73103 -0.45698,8.93375 -5.03966,4.58011 -15.57627,15.57635 -15.57627,15.57635 l -5.51609,19.77952 0.99311,2.23607 2.64896,1.73845 4.08464,0.024 2.89042,-1.30003 5.20268,-18.93255 9.82945,-9.10525 1.59023,-0.72189 5.53513,13.84207 11.91299,14.20414 c 0,0 1.37006,0.45938 3.2059,-1.14557 1.83592,-1.60503 3.66328,-2.28898 2.29114,-4.80885 -1.37214,-2.51979 -10.31005,-15.81132 -10.31005,-15.81132 l -1.37213,-33.2172 2.74851,3.66328 v 11.22489 c 0,0 -0.13765,3.51289 3.6632,3.4367 3.28001,-0.064 4.14611,-1.51195 4.14611,-1.51195 v -15.60803 c 0,0 -7.94912,-16.04214 -14.45407,-16.32377 -3.6696,-0.15846 -9.16448,0.68827 -9.16448,0.68827 z"
       stroke="#ffffff"
       id="path1931"
       style="stroke-width:2.11749" />
    <ellipse
       cx="134.82678"
       cy="79.938911"
       rx="8.5906868"
       ry="8.0168447"
       id="ellipse1933"
       style="stroke-width:2.11749" />
  </g>
  <path
     style="font-variation-settings:normal;opacity:1;vector-effect:none;fill:none;fill-opacity:1;stroke:none;stroke-width:11.9061;stroke-linecap:butt;stroke-linejoin:round;stroke-miterlimit:4;stroke-dasharray:none;stroke-dashoffset:0;stroke-opacity:1;stop-color:#000000;stop-opacity:1"
     id="path1866"
     d="m 218.9802,141.83206 c -14.14658,11.98988 -28.75603,23.4133 -43.267,34.95351 -2.38439,1.89625 -11.14829,8.35585 -13.92318,12.02975 -0.57431,0.76037 -0.62784,1.79938 -0.94176,2.69908 -0.0546,1.49501 0.58699,2.96784 0.50281,4.46233 -0.17884,3.1752 -2.03196,7.20881 -2.8781,10.294 -0.27175,0.99084 -0.43181,2.00896 -0.64771,3.01344 -0.24336,1.49718 -0.97813,4.33283 -0.25149,5.87 0.32022,0.67743 0.83593,0.9359 1.41303,1.36082 3.8174,1.37644 3.15834,1.13929 8.95316,0.25031 2.9062,-0.44585 5.81106,-0.92849 8.67702,-1.58508 7.83682,-1.7954 15.61312,-3.84547 23.41969,-5.76821 16.55543,-4.88341 33.3167,-9.04308 49.88813,-13.87001 3.34389,-0.97401 6.76496,-1.78282 9.94656,-3.19977 0.63908,-0.28462 1.50271,-1.13649 1.1622,-1.74763 -0.56595,-1.01577 -2.07637,-1.05369 -3.0645,-1.6666 -0.876,-0.54336 -1.67841,-1.19724 -2.51761,-1.79585 0.16971,-0.9399 0.0797,-1.96656 0.50912,-2.8197 0.50262,-0.99864 7.85586,-11.26876 7.9729,-11.43151 2.73617,-3.80462 6.07702,-8.12191 8.50564,-12.17501 0.88151,-1.47113 1.56623,-3.05157 2.34934,-4.57736 0.61823,-2.14241 2.02707,-3.99687 2.44487,-6.20827 0.13403,-0.7094 0.11426,-1.43953 0.18953,-2.15754 0.53778,-5.12984 0.0496,0.55446 0.47548,-4.76259 -0.12188,-1.68067 0.7411,-4.51144 -0.85363,-5.8361 -2.50881,-2.08394 -7.90691,-1.65734 -10.21546,-1.55673 -3.4926,0.1522 -6.9565,0.702 -10.43475,1.053 -8.57745,1.66123 -17.14799,4.02363 -24.49516,8.93148 -0.37044,0.24745 -3.61196,2.57247 -4.14927,4.00079 -0.072,0.19133 0.10307,0.39563 0.1546,0.59344 0.25201,-0.20157 0.77409,-0.28251 0.75603,-0.60471 -0.0587,-1.04677 -2.04198,-1.19683 -2.50323,-1.25081 -1.79482,-0.21005 -2.77004,0.17516 -4.72255,0.45644 -1.25961,0.18145 -2.52314,0.33455 -3.78471,0.50183 -2.75881,0.1886 -3.79716,0.34218 -6.37006,0.26344 -0.88028,-0.0269 -1.38464,-0.30266 -2.25817,-0.31644 -0.17916,0.0357 -1.41172,0.23132 -1.22499,-0.41452 0.20786,-0.71891 -1.05049,-0.4367 -0.71879,0.23413 v 0 c 0.42176,0.85294 0.96884,1.09718 1.94163,0.93634 0.85164,-0.0118 1.35382,0.28897 2.26248,0.31644 2.60732,0.0788 3.67743,-0.0782 6.46729,-0.27 1.26823,-0.16826 2.53868,-0.32051 3.80468,-0.50476 2.20037,-0.32023 4.78373,-0.98532 6.89734,0.13078 -0.19546,0.91105 -0.0296,-0.0702 0.61595,-0.6943 1.00763,-0.97414 2.0411,-1.94083 3.20544,-2.72095 7.25288,-4.85952 15.72565,-7.18706 24.19764,-8.83651 3.44406,-0.34987 6.87429,-0.88554 10.33219,-1.04962 1.16269,-0.0552 7.40424,-0.46734 9.56316,1.13413 1.55239,1.15156 0.62478,3.92931 0.77879,5.44296 -0.47897,5.99926 0.12217,-1.12303 -0.47524,4.75972 -0.0675,0.66467 -0.0376,1.34094 -0.15863,1.99797 -0.3997,2.16993 -1.80241,3.98178 -2.39517,6.0861 -0.76855,1.50098 -1.43907,3.05634 -2.30565,4.50294 -2.42251,4.04395 -5.7644,8.36234 -8.49294,12.15655 -0.40341,0.56098 -7.57159,10.52004 -8.10792,11.78586 -0.45845,1.08205 -0.12968,2.34674 -0.19452,3.52011 0.89345,0.62779 1.68721,1.42944 2.68034,1.88337 0.83406,0.38123 2.05015,-0.0841 2.6911,0.57178 0.37338,0.38207 -0.25594,1.20632 -0.74632,1.41828 -3.18767,1.37785 -6.58324,2.21989 -9.91739,3.19104 -16.56433,4.82474 -33.31829,8.98299 -49.86658,13.86436 -7.7916,1.91953 -15.55312,3.96557 -23.3748,5.75859 -2.85011,0.65335 -5.74092,1.12097 -8.62904,1.57789 -5.92935,0.93804 -4.66251,1.09256 -8.42342,-0.11291 -0.14444,-0.10127 -0.97897,-0.62506 -1.11468,-0.90113 -0.69994,-1.42389 0.032,-4.18948 0.25051,-5.55787 0.20932,-0.9799 0.3628,-1.97341 0.62796,-2.93969 0.93767,-3.41696 2.71176,-7.0334 2.90965,-10.6128 0.0287,-0.51899 -0.41896,-3.35633 -0.53662,-4.13663 0.25305,-0.8012 0.25147,-1.7341 0.75914,-2.4036 2.79833,-3.69032 11.44017,-10.04884 13.85806,-11.97174 14.51859,-11.54628 29.13564,-22.97577 43.28955,-34.97208 0.57089,-0.48387 0.0789,-1.05782 -0.49197,-0.57397 z" />
  <path
     style="font-variation-settings:normal;opacity:1;vector-effect:none;fill:none;fill-opacity:1;stroke:none;stroke-width:11.9061;stroke-linecap:butt;stroke-linejoin:round;stroke-miterlimit:4;stroke-dasharray:none;stroke-dashoffset:0;stroke-opacity:1;stop-color:#000000;stop-opacity:1"
     id="path1876"
     d="m 327.41281,98.891132 c 8.01244,9.426518 5.34773,5.962308 13.02956,16.428368 2.16123,2.94455 4.33335,5.88211 6.42251,8.87823 1.97113,2.82685 4.06035,5.58791 5.75642,8.58787 3.09787,5.47944 5.93023,13.24019 8.23066,19.06349 3.22881,10.31479 5.54784,17.46847 8.47003,27.72631 2.48699,8.73016 3.80078,13.07113 4.91545,22.00968 1.08128,8.67088 0.69099,11.95663 0.52011,20.76986 -0.34355,11.43584 -0.63159,22.02866 -5.36296,32.66854 -2.25374,5.06819 -5.81261,9.96816 -9.56888,14.0131 -2.04917,2.20665 -4.37182,4.14257 -6.55773,6.21385 -2.55807,1.98188 -5.01716,4.09856 -7.67421,5.94563 -9.64838,6.70715 -20.40023,12.2621 -32.10305,14.30666 -14.41439,2.51829 -23.35371,2.1262 -37.59969,2.31717 -17.18887,-0.54171 -34.70239,-2.28876 -50.07133,-10.74747 -6.24826,-3.4389 -12.67351,-9.28014 -17.28725,-14.79279 -1.7805,-2.1274 -3.19029,-4.5394 -4.78543,-6.80909 -5.91537,-8.99834 -10.00745,-19.09306 -12.90937,-29.43987 -1.15768,-4.1277 -2.31878,-8.26891 -3.06386,-12.49063 -0.77689,-4.40196 -0.99502,-8.88443 -1.49254,-13.32664 -0.0267,-11.04867 -0.29743,-22.90327 4.96279,-33.01756 2.63821,-5.07271 4.85405,-6.79509 8.78929,-10.9388 2.6937,-2.09061 5.34312,-4.23956 8.0811,-6.27184 4.07958,-3.0281 8.13188,-6.10262 12.36841,-8.90693 8.68688,-5.75018 23.88099,-14.44196 32.71484,-19.51537 5.92379,-3.40212 11.99504,-6.5538 17.81032,-10.13824 4.71278,-2.90486 9.16675,-6.21003 13.75013,-9.31505 5.05002,-4.18249 7.93109,-6.0958 11.9051,-10.66246 3.64195,-4.18509 0.21465,-1.568452 4.58365,-5.340444 3.08968,-2.667491 5.07434,-3.698337 8.69218,-5.989586 4.90482,-2.638349 6.77457,-3.936947 12.20692,-5.623659 2.32887,-0.723102 12.62125,-2.895576 14.95013,-3.385885 8.13539,-1.712786 5.20732,-1.191843 11.83824,-2.172369 0.55406,0.02329 1.12237,0.196944 1.66216,0.06989 0.26737,-0.06293 -0.50648,-0.333945 -0.77552,-0.278586 -0.51244,0.105441 -0.98313,0.398514 -1.39222,0.724628 -2.14903,1.713136 -1.75157,3.770688 -1.6438,6.264086 -0.0842,4.290317 -1.4609,7.070162 -4.0871,10.352967 -0.78294,0.978693 -1.69871,1.846873 -2.47138,2.833693 -4.9086,6.269039 0.81476,-0.45151 -2.33684,3.201579 -0.88407,0.3898 -0.87354,1.07538 -1.17062,1.87447 -0.2134,0.57402 -0.52363,1.10831 -0.74624,1.67881 -0.26621,0.23453 -0.54462,0.4559 -0.79863,0.70359 -0.25847,0.25204 -0.53837,0.49217 -0.73686,0.79372 -0.51851,0.78772 -0.28575,2.38024 -1.37045,2.66819 -0.7233,0.19201 -0.32522,1.0541 0.3245,0.68276 v 0 c 0.96317,-0.55049 1.11098,-1.20078 1.40395,-2.22893 0.0584,-0.20486 0.0794,-0.43011 0.19642,-0.60813 0.18905,-0.28765 0.46168,-0.51086 0.70136,-0.7579 0.32234,-0.33223 0.65624,-0.65304 0.98436,-0.97956 0.23491,-0.60755 0.55382,-1.18086 0.78021,-1.79164 0.30324,-0.81809 0.12225,-1.10538 1.00542,-1.54277 3.57556,-4.178652 -2.88469,3.46286 2.33334,-3.197545 0.78688,-1.004394 1.72078,-1.887104 2.51362,-2.886805 2.72113,-3.43112 4.14842,-6.370072 4.22999,-10.833351 -0.1136,-2.071553 -0.60185,-4.099492 1.23929,-5.557467 0.81602,-0.646197 2.90654,-1.018691 1.84602,-1.871212 -0.46834,-0.376492 -1.2011,-0.04153 -1.80165,-0.06229 -6.66775,0.987722 -3.73683,0.465176 -11.88639,2.181094 -2.46298,0.51859 -12.63882,2.664982 -15.06784,3.421408 -5.48874,1.709252 -7.38305,3.02309 -12.33503,5.688679 -3.653,2.316242 -5.69682,3.38164 -8.81925,6.090766 -4.57449,3.96899 -0.92888,1.132991 -4.5938,5.350683 -3.93105,4.52397 -6.78383,6.41692 -11.78728,10.56375 -4.56668,3.09464 -9.00397,6.3894 -13.70006,9.28391 -5.81699,3.5854 -11.88996,6.73802 -17.81542,10.14116 -8.88789,5.10455 -24.04544,13.77522 -32.77754,19.55598 -4.24401,2.80959 -8.30479,5.88803 -12.39038,8.92337 -2.76762,2.05617 -5.44394,4.23246 -8.16591,6.34869 -4.03031,4.25682 -6.2448,5.96998 -8.94356,11.18055 -5.30059,10.23403 -5.05175,22.20557 -5.0112,33.38027 0.5032,4.47416 0.72608,8.98881 1.5096,13.42248 0.74931,4.2401 1.91585,8.39937 3.07937,12.54499 2.92417,10.41879 7.05069,20.5807 13.00978,29.64036 1.61986,2.29963 3.05198,4.7437 4.85958,6.89889 4.69372,5.5963 11.18407,11.47568 17.5399,14.9655 15.4679,8.49301 33.07982,10.26487 50.37298,10.80584 14.33699,-0.19467 23.28659,0.20012 37.79936,-2.34681 11.793,-2.06962 22.63409,-7.67149 32.35628,-14.4354 2.67689,-1.86237 5.15418,-3.99639 7.73127,-5.99458 5.26437,-4.99562 7.92655,-6.96624 11.99727,-12.94612 3.61275,-5.30713 6.08429,-10.74201 7.54794,-17.03543 1.82155,-7.8323 1.80307,-15.47184 2.18001,-23.44795 0.16959,-8.88196 0.56142,-12.17432 -0.53113,-20.91383 -1.12159,-8.97175 -2.44121,-13.3397 -4.93556,-22.09542 -2.9375,-10.31127 -5.24249,-17.41385 -8.49165,-27.78894 -2.34988,-5.94596 -5.14382,-13.6154 -8.3058,-19.2066 -1.70087,-3.00759 -3.79554,-5.77583 -5.77185,-8.61004 -2.09118,-2.99895 -4.26514,-5.93948 -6.42869,-8.88666 -7.6988,-10.48727 -5.04198,-7.03355 -13.05079,-16.455555 -0.48468,-0.570198 -1.06974,-0.09151 -0.58508,0.478697 z" />
</svg>
