<?xml version="1.0" encoding="UTF-8"?>
<svg width="91.44mm" height="91.44mm" clip-rule="evenodd" fill-rule="evenodd" image-rendering="optimizeQuality" shape-rendering="geometricPrecision" text-rendering="geometricPrecision" version="1.1" viewBox="0 0 9144 9144" xmlns="http://www.w3.org/2000/svg">
 <defs>
  <style type="text/css">.fil1 {fill:white;fill-rule:nonzero} .fil0 {fill:url(#a)}</style>
  <linearGradient id="a" x1="10043" x2="-898.9" y1="6303" y2="2841" gradientUnits="userSpaceOnUse">
   <stop stop-color="#48CFAE" offset="0"/>
   <stop stop-color="#4FC0E8" offset="1"/>
  </linearGradient>
 </defs>
 <polygon class="fil0" points="9144 0 0 0 0 9144 9144 9144"/>
 <path class="fil1" d="m6012 4718v1886c0 47-38 85-85 85h-2710c-46 0-84-38-84-85v-1886h-655c-46 0-84-38-84-84 0-26 11-48 28-64l2028-2089c33-34 86-34 119-2l2156 2094c33 32 34 86 1 119-16 17-38 26-60 26h-654zm-1871 508h859c47 0 85 38 85 85v7l2 1201h755v-1885c0-47 38-85 85-85h531l-1946-1890-1834 1890h539c47 0 85 38 85 85v1885h755v-1208c0-47 38-84 84-84v-1zm775 170h-690l-1 1123h694l-3-1123z"/>
</svg>
