<?xml version='1.0' encoding='utf-8'?>
<svg xmlns="http://www.w3.org/2000/svg" width="91.44mm" height="91.44mm" version="1.1" style="shape-rendering:geometricPrecision; text-rendering:geometricPrecision; image-rendering:optimizeQuality; fill-rule:evenodd; clip-rule:evenodd" viewBox="0 0 9144 9144"> <defs> <style type="text/css">  .fil0 {fill:#F0F0F0} .fil1 {fill:#011627;fill-rule:nonzero}  </style> </defs> <g id="Layer_x0020_1"> <metadata id="CorelCorpID_0Corel-Layer"/> <g id="_2744492859776"> <polygon class="fil0" points="9144,0 0,0 0,9144 9144,9144 "/> <path class="fil1" d="M6012 4718l0 1886c0,47 -38,85 -85,85l-2710 0c-46,0 -84,-38 -84,-85l0 -1886 -655 0c-46,0 -84,-38 -84,-84 0,-26 11,-48 28,-64l2028 -2089c33,-34 86,-34 119,-2l2156 2094c33,32 34,86 1,119 -16,17 -38,26 -60,26l-654 0zm-1871 508l859 0c47,0 85,38 85,85l0 7 2 1201 755 0 0 -1885c0,-47 38,-85 85,-85l531 0 -1946 -1890 -1834 1890 539 0c47,0 85,38 85,85l0 1885 755 0 0 -1208c0,-47 38,-84 84,-84l0 -1zm775 170l-690 0 -1 1123 694 0 -3 -1123z"/> </g> </g> </svg>